<svg width="593" height="601" viewBox="0 0 593 601" fill="none" xmlns="http://www.w3.org/2000/svg">
<path d="M45.5 115.5C137.5 -21.5 194 -10.5 592.5 18V600.5C565.167 540.167 485.3 439.5 384.5 519.5C283.7 599.5 151.167 546.5 97.5 510C56.6667 465.167 2.7 375 113.5 373C252 370.5 126 238.5 75 265.5C24 292.5 -46.5 252.5 45.5 115.5Z" fill="#FDFDFD"/>
<path d="M153.959 307.188V309.041C153.96 313.575 155.269 318.013 157.727 321.822C160.186 325.632 163.691 328.653 167.822 330.522C168.69 330.916 169.581 331.255 170.492 331.538C172.771 332.248 175.144 332.608 177.532 332.606H187.092C188.381 332.607 189.618 333.119 190.529 334.031C191.441 334.943 191.953 336.18 191.953 337.469V355.611H273.244V337.471C273.243 336.493 273.537 335.537 274.089 334.73C274.64 333.922 275.423 333.3 276.334 332.944C276.471 332.891 276.61 332.843 276.752 332.8C276.928 332.75 277.106 332.709 277.286 332.679C277.557 332.631 277.832 332.607 278.107 332.608H294.195C294.449 332.608 294.7 332.608 294.953 332.597C300.46 332.432 305.749 330.409 309.962 326.858C310.499 326.406 311.016 325.932 311.512 325.435C314.942 322.011 317.278 317.646 318.226 312.894C319.173 308.141 318.689 303.214 316.835 298.737C314.981 294.26 311.839 290.433 307.809 287.742C303.779 285.051 299.041 283.617 294.195 283.621H275.318C274.473 283.635 273.634 283.48 272.849 283.167C272.065 282.853 271.35 282.387 270.748 281.795C270.146 281.202 269.667 280.496 269.341 279.717C269.014 278.937 268.846 278.101 268.846 277.256C268.846 276.411 269.014 275.575 269.341 274.796C269.667 274.017 270.146 273.31 270.748 272.718C271.35 272.125 272.065 271.659 272.849 271.345C273.634 271.032 274.473 270.878 275.318 270.892H307.158C310.102 270.892 312.98 270.02 315.427 268.384C317.875 266.749 319.783 264.424 320.909 261.705C322.035 258.985 322.33 255.992 321.755 253.105C321.18 250.218 319.762 247.567 317.68 245.486C317.628 245.434 317.577 245.383 317.523 245.333C314.751 242.63 311.03 241.12 307.158 241.127C304.097 241.129 301.144 239.991 298.876 237.935C298.686 237.757 298.502 237.579 298.322 237.401C296.268 235.301 295.035 232.533 294.846 229.601C294.828 229.334 294.819 229.067 294.819 228.793V216.226C294.82 215.588 294.694 214.955 294.45 214.365C294.206 213.775 293.848 213.239 293.396 212.788C292.945 212.336 292.409 211.978 291.819 211.733C291.229 211.489 290.597 211.363 289.958 211.363H176.649C173.448 211.363 170.332 212.396 167.764 214.307C165.196 216.218 163.312 218.906 162.393 221.972C161.98 223.359 161.769 224.797 161.766 226.244C161.766 226.76 161.793 227.269 161.843 227.771C161.906 228.386 162.007 228.997 162.145 229.599C162.905 232.876 164.752 235.8 167.386 237.893C170.02 239.986 173.285 241.125 176.649 241.125H188.753C189.889 241.125 191.014 241.348 192.063 241.783C193.113 242.217 194.066 242.854 194.87 243.657C195.673 244.461 196.31 245.414 196.745 246.464C197.18 247.513 197.404 248.638 197.404 249.774C197.403 252.068 196.491 254.268 194.869 255.89C193.247 257.512 191.047 258.423 188.753 258.423C188.594 258.423 188.438 258.423 188.281 258.434C185.389 258.555 182.656 259.79 180.654 261.88C178.651 263.97 177.534 266.753 177.537 269.648V277.302C177.538 278.984 176.995 280.622 175.991 281.971C174.987 283.321 173.574 284.311 171.962 284.794C170.549 285.214 169.164 285.726 167.818 286.328C164.08 288.005 160.056 290.685 157.316 294.947C156.307 296.514 155.52 298.214 154.979 299.998C154.283 302.331 153.94 304.754 153.959 307.188Z" fill="#FFF0DE"/>
<path d="M312.29 358.745H302.24C301.375 358.745 300.674 358.044 300.674 357.179V357.177C300.674 356.312 301.375 355.611 302.24 355.611H312.29C313.155 355.611 313.856 356.312 313.856 357.177V357.179C313.856 358.044 313.155 358.745 312.29 358.745Z" fill="#F9E7D9"/>
<path d="M297.831 358.745H156.795C155.93 358.745 155.228 358.044 155.228 357.179V357.177C155.228 356.312 155.93 355.611 156.795 355.611H297.831C298.696 355.611 299.398 356.312 299.398 357.177V357.179C299.398 358.044 298.696 358.745 297.831 358.745Z" fill="#F9E7D9"/>
<path d="M234.175 235.699V355.611H273.244V337.471C273.243 336.493 273.537 335.537 274.089 334.729C274.64 333.922 275.423 333.299 276.334 332.944C276.471 332.891 276.61 332.843 276.752 332.8C276.928 332.75 277.106 332.709 277.286 332.679C277.557 332.631 277.832 332.607 278.107 332.608H279.83V283.62H275.316C274.471 283.635 273.632 283.48 272.848 283.167C272.063 282.853 271.349 282.387 270.746 281.794C270.144 281.202 269.666 280.496 269.339 279.717C269.012 278.937 268.844 278.101 268.844 277.256C268.844 276.411 269.012 275.575 269.339 274.796C269.666 274.016 270.144 273.31 270.746 272.718C271.349 272.125 272.063 271.659 272.848 271.345C273.632 271.032 274.471 270.878 275.316 270.892H279.83V235.699C279.83 235.114 279.597 234.552 279.182 234.138C278.768 233.725 278.207 233.492 277.621 233.492H236.384C235.798 233.492 235.237 233.725 234.822 234.138C234.408 234.552 234.175 235.114 234.175 235.699Z" fill="#F9E7D9"/>
<path d="M277.292 283.621V332.688C277.112 332.718 276.933 332.759 276.758 332.809V283.621H277.292ZM277.292 238.323V270.897H276.758V238.857C276.758 238.736 276.734 238.616 276.687 238.504C276.641 238.392 276.573 238.29 276.487 238.204C276.401 238.119 276.299 238.051 276.187 238.005C276.075 237.959 275.955 237.935 275.834 237.935H238.178C238.057 237.935 237.937 237.959 237.825 238.005C237.713 238.051 237.611 238.119 237.525 238.204C237.439 238.29 237.371 238.392 237.325 238.504C237.278 238.616 237.254 238.736 237.254 238.857V355.344H273.244V355.611H236.713V238.323C236.713 238.202 236.737 238.082 236.783 237.97C236.83 237.858 236.898 237.756 236.984 237.67C237.07 237.585 237.171 237.517 237.284 237.471C237.396 237.425 237.516 237.401 237.637 237.401H276.368C276.489 237.401 276.609 237.425 276.721 237.471C276.833 237.517 276.935 237.585 277.021 237.67C277.107 237.756 277.175 237.858 277.221 237.97C277.268 238.082 277.292 238.202 277.292 238.323Z" fill="#EFD6C5"/>
<path d="M269.239 245.333H244.623V247.344H269.239V245.333Z" fill="#EFD6C5"/>
<path d="M269.239 251.703H244.623V253.715H269.239V251.703Z" fill="#EFD6C5"/>
<path d="M269.239 258.074H244.623V260.085H269.239V258.074Z" fill="#EFD6C5"/>
<path d="M270.43 291.914V304.635H272.441V291.914H270.43Z" fill="#EFD6C5"/>
<path d="M284.435 283.62V332.608H294.195C294.449 332.608 294.7 332.608 294.953 332.597C300.46 332.432 305.749 330.409 309.962 326.858C310.499 326.406 311.016 325.932 311.512 325.434C314.942 322.011 317.278 317.646 318.226 312.894C319.173 308.141 318.689 303.214 316.835 298.737C314.981 294.26 311.839 290.433 307.809 287.742C303.779 285.051 299.041 283.617 294.195 283.62H284.435Z" fill="#F9E7D9"/>
<path d="M284.435 235.699V270.892H307.158C310.102 270.892 312.98 270.02 315.427 268.384C317.875 266.749 319.783 264.424 320.909 261.705C322.035 258.985 322.33 255.992 321.755 253.105C321.18 250.218 319.762 247.567 317.68 245.486C317.628 245.434 317.577 245.383 317.523 245.333C314.751 242.63 311.03 241.12 307.158 241.127C304.097 241.129 301.144 239.991 298.876 237.935C298.686 237.757 298.502 237.579 298.322 237.401C297.221 236.272 296.347 234.943 295.747 233.485H286.64C286.35 233.486 286.063 233.543 285.795 233.655C285.527 233.766 285.284 233.93 285.079 234.135C284.874 234.341 284.712 234.585 284.601 234.853C284.491 235.122 284.434 235.409 284.435 235.699Z" fill="#F9E7D9"/>
<path d="M298.326 237.401C298.504 237.579 298.682 237.757 298.88 237.935H288.433C288.311 237.935 288.191 237.958 288.079 238.005C287.967 238.051 287.865 238.119 287.78 238.204C287.694 238.29 287.626 238.392 287.579 238.504C287.533 238.616 287.509 238.736 287.509 238.857V270.897H286.975V238.323C286.975 238.202 286.999 238.082 287.045 237.97C287.092 237.858 287.16 237.756 287.246 237.67C287.331 237.585 287.433 237.517 287.545 237.471C287.657 237.424 287.777 237.401 287.899 237.401H298.326ZM287.509 283.62V332.608H286.975V283.62H287.509Z" fill="#EFD6C5"/>
<path d="M294.885 245.333V247.344H319.257C318.783 246.682 318.256 246.061 317.68 245.486C317.628 245.434 317.577 245.383 317.523 245.333H294.885Z" fill="#EFD6C5"/>
<path d="M319.501 251.703H294.885V253.715H319.501V251.703Z" fill="#EFD6C5"/>
<path d="M319.501 258.074H294.885V260.085H319.501V258.074Z" fill="#EFD6C5"/>
<path d="M161.843 227.773C161.906 228.388 162.007 228.999 162.145 229.601H294.85C294.832 229.334 294.823 229.067 294.823 228.793V227.773H161.843Z" fill="#EFD6C5"/>
<path d="M161.903 224.236H294.823V219.044H163.623C163.11 219.973 162.697 220.955 162.393 221.972C162.17 222.712 162.006 223.47 161.903 224.236Z" fill="#EFD6C5"/>
<path d="M240.492 270.707H238.087V285.004H240.492V270.707Z" fill="#604970"/>
<path d="M239.29 286.8C237.993 286.8 236.941 285.748 236.941 284.45C236.941 283.152 237.993 282.1 239.29 282.1C240.588 282.1 241.64 283.152 241.64 284.45C241.64 285.748 240.588 286.8 239.29 286.8Z" fill="#483B53"/>
<path d="M261.219 339.958L255.828 333.812L248.34 340.378L253.731 346.525L261.219 339.958Z" fill="#F5B5A9"/>
<path d="M258.998 337.425L255.828 333.81L248.34 340.377L251.51 343.992L258.998 337.425Z" fill="#E5888C"/>
<path d="M260.241 339.235L255.515 342.772C254.201 342.401 252.803 342.464 251.528 342.953C250.253 343.442 249.171 344.33 248.442 345.485C247.713 346.639 247.377 347.998 247.484 349.359C247.591 350.721 248.136 352.011 249.036 353.037L258.555 344.689L263.299 340.52L262.363 339.452C262.102 339.155 261.738 338.968 261.345 338.928C260.951 338.888 260.557 338.997 260.241 339.235Z" fill="#604970"/>
<path d="M250.129 343.697C249.065 344.846 248.464 346.348 248.443 347.914C248.422 349.48 248.981 350.998 250.013 352.175L249.029 353.037C248.481 352.412 248.061 351.685 247.794 350.897C247.527 350.11 247.417 349.277 247.472 348.447C247.526 347.618 247.744 346.807 248.112 346.061C248.48 345.315 248.991 344.649 249.616 344.101C249.779 343.957 249.951 343.822 250.129 343.697Z" fill="#483B53"/>
<path d="M264.801 340.44C264.959 340.618 265.046 340.847 265.046 341.085C265.046 341.323 264.959 341.552 264.801 341.73C264.774 341.763 264.744 341.794 264.712 341.823L250.517 354.272C250.478 354.307 250.436 354.339 250.392 354.368C250.092 354.579 249.725 354.671 249.361 354.628C248.998 354.584 248.663 354.408 248.421 354.132C248.179 353.857 248.048 353.502 248.052 353.135C248.056 352.769 248.195 352.417 248.443 352.147C248.498 352.088 248.557 352.035 248.621 351.987L249.193 351.536L250.816 350.257L251.576 349.659L253.205 348.379L253.963 347.782L255.594 346.501L256.352 345.905L257.98 344.623L258.741 344.027L260.369 342.745L261.128 342.149L262.76 340.876L263.454 340.317C263.474 340.302 263.495 340.287 263.516 340.274C263.713 340.141 263.952 340.084 264.188 340.115C264.423 340.145 264.64 340.261 264.796 340.44H264.801Z" fill="#3C1C39"/>
<path d="M249.187 351.536L251.12 353.74L250.396 354.375L248.438 352.147C248.492 352.088 248.552 352.035 248.616 351.987L249.187 351.536Z" fill="#604970"/>
<path d="M251.578 349.659L253.402 351.739L252.676 352.377L250.818 350.257L251.578 349.659Z" fill="#604970"/>
<path d="M253.965 347.782L255.683 349.74L254.956 350.376L253.207 348.379L253.965 347.782Z" fill="#604970"/>
<path d="M256.354 345.904L257.963 347.74L257.238 348.375L255.595 346.501L256.354 345.904Z" fill="#604970"/>
<path d="M258.742 344.027L260.245 345.739L259.518 346.374L257.982 344.623L258.742 344.027Z" fill="#604970"/>
<path d="M261.129 342.149L262.525 343.74L261.8 344.375L260.371 342.745L261.129 342.149Z" fill="#604970"/>
<path d="M263.522 340.274L264.807 341.739L264.081 342.375L262.76 340.876L263.454 340.317C263.476 340.301 263.498 340.287 263.522 340.274Z" fill="#604970"/>
<path d="M218.788 298.584C218.153 299.143 217.635 299.821 217.262 300.58C216.889 301.34 216.67 302.165 216.616 303.009C216.562 303.853 216.675 304.699 216.949 305.5C217.222 306.3 217.651 307.039 218.209 307.673L248.839 342.479C248.961 342.618 249.133 342.702 249.317 342.714C249.501 342.726 249.682 342.664 249.82 342.542L258.446 334.952C258.584 334.83 258.668 334.658 258.68 334.474C258.692 334.29 258.63 334.109 258.508 333.97L227.879 299.164C226.751 297.882 225.159 297.101 223.455 296.992C221.751 296.883 220.073 297.456 218.791 298.584L218.788 298.584Z" fill="#3C1C39"/>
<path d="M222.649 264.173L209.923 266.243L216.225 304.979C216.5 306.666 217.433 308.175 218.82 309.174C220.207 310.173 221.935 310.58 223.622 310.306C225.309 310.031 226.818 309.098 227.817 307.711C228.816 306.323 229.223 304.596 228.949 302.909L222.647 264.173L222.649 264.173Z" fill="#3C1C39"/>
<path d="M220.912 264.455L226.343 297.814L226.686 299.916C226.826 300.775 227.205 301.577 227.779 302.23L229.08 303.715L257.329 335.933L258.187 335.18C258.256 335.12 258.312 335.047 258.353 334.965C258.393 334.883 258.417 334.793 258.423 334.702C258.429 334.611 258.417 334.519 258.388 334.432C258.358 334.346 258.312 334.266 258.251 334.197L228.525 300.301L222.651 264.167L220.912 264.455Z" fill="#EFCBD1"/>
<path d="M245.214 255.513H236.932V270.21H245.214C246.409 270.21 247.555 269.735 248.4 268.89C249.245 268.046 249.72 266.9 249.72 265.705V260.009C249.717 258.815 249.241 257.672 248.397 256.829C247.552 255.986 246.408 255.513 245.214 255.513Z" fill="#483B53"/>
<path d="M243.933 270.21H245.214C246.409 270.21 247.555 269.735 248.4 268.89C249.245 268.046 249.72 266.9 249.72 265.705V260.009C249.72 258.814 249.245 257.668 248.4 256.823C247.555 255.978 246.409 255.504 245.214 255.504H243.933C245.128 255.504 246.274 255.978 247.118 256.823C247.963 257.668 248.438 258.814 248.438 260.009V265.705C248.438 266.9 247.963 268.046 247.118 268.89C246.274 269.735 245.128 270.21 243.933 270.21Z" fill="black"/>
<path d="M236.732 235.762L234.213 236.325L237.418 250.674L245.493 248.87C246.659 248.61 247.674 247.897 248.314 246.888C248.954 245.88 249.168 244.658 248.907 243.492C248.318 240.852 246.704 238.555 244.42 237.106C242.137 235.656 239.372 235.173 236.732 235.762Z" fill="#483B53"/>
<path d="M247.288 243.784C247.549 244.95 247.335 246.172 246.695 247.181C246.055 248.189 245.04 248.903 243.874 249.163L237.402 250.609L237.414 250.671L245.49 248.868C246.068 248.739 246.614 248.498 247.098 248.158C247.582 247.818 247.995 247.386 248.312 246.887C248.629 246.387 248.844 245.83 248.946 245.248C249.048 244.665 249.034 244.068 248.904 243.49C248.613 242.183 248.066 240.946 247.297 239.85C246.527 238.754 245.549 237.82 244.418 237.102C243.288 236.384 242.027 235.896 240.707 235.665C239.388 235.435 238.036 235.466 236.729 235.758L236.232 235.868C238.726 235.597 241.232 236.254 243.272 237.715C245.312 239.175 246.741 241.336 247.288 243.784Z" fill="black"/>
<path d="M228.566 230.678H224.518C223.239 230.678 222.012 231.186 221.107 232.091C220.203 232.995 219.694 234.222 219.694 235.502V269.126C219.694 270.405 220.203 271.632 221.107 272.537C222.012 273.442 223.239 273.95 224.518 273.95H242.169C243.448 273.95 244.675 273.442 245.58 272.537C246.484 271.632 246.993 270.405 246.993 269.126V249.106C246.993 246.686 246.516 244.29 245.59 242.054C244.665 239.818 243.307 237.787 241.596 236.076C239.885 234.364 237.854 233.007 235.618 232.081C233.382 231.155 230.986 230.678 228.566 230.678Z" fill="#604970"/>
<path d="M226.567 230.678H224.241C223.035 230.678 221.879 231.157 221.026 232.01C220.173 232.862 219.694 234.018 219.694 235.224V269.4C219.694 269.997 219.812 270.589 220.04 271.14C220.268 271.692 220.603 272.194 221.025 272.616C221.448 273.038 221.949 273.373 222.5 273.602C223.052 273.83 223.643 273.948 224.241 273.948H239.383C240.589 273.948 241.745 273.469 242.598 272.616C243.45 271.764 243.929 270.608 243.929 269.402V248.042C243.929 245.762 243.481 243.504 242.608 241.397C241.736 239.29 240.457 237.376 238.845 235.764C237.232 234.151 235.318 232.872 233.212 232C231.105 231.127 228.847 230.678 226.567 230.678Z" fill="#503B60"/>
<path d="M261.318 338.256L263.077 340.262L254.691 347.617L251.804 344.326L259.33 337.725C259.805 337.316 260.695 337.546 261.318 338.256Z" fill="#604970"/>
<path d="M231.956 267.617L219.299 265.166L211.837 303.696C211.512 305.374 211.867 307.112 212.824 308.529C213.781 309.945 215.262 310.924 216.94 311.249C218.618 311.574 220.357 311.219 221.773 310.262C223.19 309.305 224.168 307.825 224.493 306.146L231.954 267.617L231.956 267.617Z" fill="#915E8C"/>
<path d="M177.073 245.481L180.773 245.629C182.702 245.706 184.203 247.332 184.126 249.261L184.126 249.263C184.049 251.192 182.423 252.693 180.494 252.616L176.793 252.468C174.865 252.39 173.363 250.764 173.441 248.836L173.441 248.834C173.518 246.905 175.144 245.404 177.073 245.481Z" fill="#F5B5A9"/>
<path d="M186.65 235.701L189.312 240.117C190.1 241.425 189.679 243.124 188.372 243.912L188.37 243.913C187.063 244.701 185.364 244.28 184.576 242.972L181.914 238.556C181.126 237.248 181.547 235.549 182.854 234.761L182.856 234.76C184.163 233.972 185.862 234.393 186.65 235.701Z" fill="#F5B5A9"/>
<path d="M177.416 238.863L181.279 239.015C183.976 239.12 186.078 241.392 185.972 244.09C185.867 246.787 183.594 248.888 180.897 248.783L177.034 248.632C174.336 248.526 172.235 246.254 172.341 243.557C172.446 240.859 174.718 238.758 177.416 238.863Z" fill="#F5B5A9"/>
<path d="M208.732 235.028C210.898 232.624 214.603 232.432 217.007 234.598C219.41 236.765 219.602 240.47 217.436 242.874L208.06 253.275C205.893 255.679 202.188 255.871 199.785 253.705C197.381 251.539 197.189 247.834 199.356 245.43L208.732 235.028Z" fill="#F5B5A9"/>
<path d="M203.319 242.336C207.257 243.182 209.764 247.061 208.918 251C208.071 254.939 204.192 257.445 200.253 256.599L182.638 252.813C178.7 251.966 176.193 248.087 177.039 244.149C177.886 240.21 181.765 237.703 185.704 238.55L203.319 242.336Z" fill="#F5B5A9"/>
<path d="M173.603 249.06C173.603 249.962 173.953 250.83 174.578 251.48C175.204 252.13 176.057 252.513 176.958 252.549L180.657 252.693C181.022 252.707 181.387 252.664 181.738 252.565C182.029 252.667 182.326 252.751 182.628 252.816L200.241 256.598C201.686 256.91 203.192 256.774 204.559 256.211C205.925 255.647 207.089 254.682 207.895 253.442C207.954 253.385 208.009 253.327 208.062 253.264L217.439 242.864C218.1 242.131 218.565 241.243 218.791 240.282C219.017 239.322 218.997 238.32 218.731 237.369C218.49 238.255 218.043 239.072 217.427 239.752L209.061 249.035L208.051 250.153C207.995 250.215 207.938 250.276 207.873 250.331C207.068 251.568 205.906 252.531 204.541 253.094C203.177 253.657 201.674 253.793 200.23 253.483L199.394 253.305L184.182 250.037L182.615 249.699C182.314 249.634 182.016 249.55 181.725 249.448C181.374 249.55 181.008 249.593 180.643 249.576L177.929 249.471L176.946 249.432C176.322 249.408 175.715 249.218 175.19 248.88C174.665 248.542 174.24 248.07 173.959 247.511C173.743 247.95 173.622 248.429 173.603 248.918V249.06Z" fill="#F5B5A9"/>
<path d="M212.341 246.484C208.169 246.484 204.787 243.102 204.787 238.93C204.787 234.758 208.169 231.376 212.341 231.376C216.513 231.376 219.896 234.758 219.896 238.93C219.896 243.102 216.513 246.484 212.341 246.484Z" fill="#FFB41F"/>
<path d="M224.775 222.267H217.119V231.198H224.775V222.267Z" fill="#F5B5A9"/>
<path d="M220.946 279.359C222.343 279.359 223.726 279.084 225.017 278.549C226.308 278.015 227.48 277.231 228.468 276.243C229.456 275.255 230.239 274.082 230.774 272.791C231.308 271.501 231.583 270.117 231.583 268.72V264.911H210.31V268.72C210.31 270.117 210.585 271.5 211.119 272.791C211.654 274.082 212.437 275.254 213.425 276.242C214.412 277.23 215.585 278.014 216.875 278.549C218.166 279.084 219.549 279.359 220.946 279.359Z" fill="#915E8C"/>
<path d="M215.476 344.482L205.698 342.589L204.144 350.615L213.921 352.509L215.476 344.482Z" fill="#F5B5A9"/>
<path d="M215.373 351.277L214.764 354.418L203.812 352.296L204.686 347.786L214.269 349.642C214.449 349.677 214.62 349.747 214.773 349.848C214.926 349.949 215.057 350.079 215.159 350.231C215.262 350.383 215.334 350.553 215.37 350.732C215.407 350.912 215.408 351.097 215.373 351.277Z" fill="#604970"/>
<path d="M215.475 344.482L205.698 342.588L204.783 347.308L214.561 349.202L215.475 344.482Z" fill="#E5888C"/>
<path d="M213.89 351.287L208.194 349.719C207.683 348.452 206.776 347.384 205.609 346.674C204.441 345.965 203.075 345.653 201.715 345.784C200.355 345.915 199.074 346.483 198.063 347.402C197.053 348.322 196.367 349.543 196.108 350.885L208.539 353.293L214.741 354.495L215.011 353.101C215.087 352.713 215.013 352.311 214.805 351.975C214.597 351.639 214.271 351.393 213.89 351.287Z" fill="#604970"/>
<path d="M204.166 346.038C202.607 345.902 201.053 346.348 199.804 347.291C198.555 348.233 197.699 349.605 197.402 351.141L196.118 350.892C196.276 350.076 196.594 349.298 197.052 348.605C197.511 347.911 198.101 347.314 198.791 346.849C199.48 346.383 200.254 346.058 201.068 345.892C201.883 345.726 202.723 345.721 203.539 345.88C203.751 345.922 203.96 345.974 204.166 346.038Z" fill="#483B53"/>
<path d="M215.73 355.63C215.685 355.864 215.557 356.073 215.369 356.218C215.181 356.364 214.946 356.436 214.709 356.421C214.666 356.419 214.624 356.413 214.582 356.405L196.045 352.814C195.994 352.804 195.943 352.791 195.892 352.775C195.542 352.667 195.244 352.434 195.056 352.119C194.867 351.805 194.801 351.432 194.871 351.072C194.941 350.712 195.141 350.391 195.433 350.17C195.726 349.949 196.09 349.843 196.455 349.874C196.533 349.882 196.611 349.895 196.688 349.913L197.4 350.091L199.411 350.595L200.349 350.83L202.359 351.332L203.29 351.565L205.301 352.067L206.238 352.302L208.247 352.802L209.184 353.037L211.193 353.539L212.129 353.774L214.148 354.278L215.013 354.495C215.037 354.5 215.061 354.507 215.084 354.516C215.298 354.587 215.48 354.729 215.602 354.918C215.735 355.131 215.781 355.385 215.73 355.63Z" fill="#3C1C39"/>
<path d="M197.393 350.089L196.836 352.968L195.891 352.79L196.455 349.879C196.533 349.887 196.611 349.9 196.688 349.918L197.393 350.089Z" fill="#604970"/>
<path d="M200.342 350.828L199.815 353.544L198.868 353.361L199.404 350.593L200.342 350.828Z" fill="#604970"/>
<path d="M203.288 351.565L202.793 354.121L201.846 353.938L202.352 351.33L203.288 351.565Z" fill="#604970"/>
<path d="M206.236 352.302L205.771 354.698L204.826 354.516L205.3 352.067L206.236 352.302Z" fill="#604970"/>
<path d="M209.184 353.039L208.749 355.276L207.804 355.093L208.247 352.804L209.184 353.039Z" fill="#604970"/>
<path d="M212.129 353.776L211.727 355.853L210.782 355.67L211.193 353.541L212.129 353.776Z" fill="#604970"/>
<path d="M215.077 354.516L214.707 356.43L213.76 356.252L214.148 354.278L215.013 354.495C215.035 354.5 215.056 354.508 215.077 354.516Z" fill="#604970"/>
<path d="M219.569 297.684C218.738 297.522 217.883 297.526 217.054 297.696C216.224 297.865 215.436 298.196 214.735 298.67C214.033 299.143 213.432 299.751 212.965 300.457C212.498 301.163 212.175 301.954 212.014 302.786L203.997 344.183C203.962 344.364 204 344.552 204.104 344.705C204.207 344.858 204.367 344.963 204.548 344.999L215.841 347.185C216.022 347.22 216.21 347.182 216.363 347.079C216.516 346.976 216.621 346.816 216.656 346.634L224.673 305.237C224.998 303.559 224.643 301.82 223.686 300.404C222.729 298.987 221.249 298.009 219.571 297.684L219.569 297.684Z" fill="#915E8C"/>
<path d="M210.31 264.911H231.583V246.114H210.31V264.911Z" fill="#FFD41D"/>
<path d="M232.234 266.191L230.546 265.864L214.836 346.99L215.842 347.185C216.023 347.22 216.211 347.181 216.364 347.078C216.517 346.975 216.623 346.815 216.658 346.634L232.236 266.191L232.234 266.191Z" fill="#F4DBDE"/>
<path d="M237.388 242.195C237.387 245.009 236.346 247.723 234.463 249.815C232.655 251.787 230.159 253.008 227.402 253.008H215.814C210.277 253.008 205.599 248.061 205.643 242.015C205.643 239.2 206.685 236.485 208.568 234.393C210.374 232.421 212.872 231.2 215.629 231.2H227.217C232.754 231.2 237.432 236.146 237.388 242.195Z" fill="#FFD41D"/>
<path d="M224.775 222.267V224.937C223.296 226.831 221.229 228.181 218.901 228.773C218.317 228.923 217.721 229.023 217.121 229.071V222.267H224.775Z" fill="#F5B5A9"/>
<path d="M220.042 253.106H216.352C213.554 253.112 210.861 252.042 208.83 250.119C206.799 248.195 205.585 245.564 205.439 242.77C205.294 239.977 206.227 237.234 208.047 235.109C209.866 232.984 212.433 231.64 215.216 231.354C215.526 231.322 215.837 231.305 216.154 231.297H220.034C218.708 231.296 217.393 231.537 216.154 232.009C215.834 232.132 215.522 232.268 215.216 232.417C214.145 232.948 213.167 233.649 212.322 234.494C210.796 236.019 209.758 237.963 209.337 240.078C208.916 242.194 209.132 244.386 209.958 246.379C210.784 248.372 212.182 250.075 213.975 251.273C215.769 252.471 217.877 253.11 220.034 253.11L220.042 253.106Z" fill="#F9E27D"/>
<path d="M226.667 230.708V234.206H215.216V230.708C215.216 230.202 215.415 229.717 215.769 229.355C216.123 228.994 216.604 228.786 217.11 228.775H224.764C225.271 228.783 225.755 228.99 226.111 229.352C226.467 229.714 226.667 230.201 226.667 230.708Z" fill="#FFD41D"/>
<path d="M218.053 228.775C217.548 228.786 217.067 228.994 216.713 229.356C216.359 229.717 216.161 230.203 216.161 230.708V232.006C215.841 232.129 215.529 232.264 215.223 232.413V230.708C215.223 230.202 215.422 229.717 215.776 229.355C216.13 228.994 216.611 228.786 217.117 228.775H218.053Z" fill="#F9E27D"/>
<path d="M217.085 227.259C218.508 227.343 219.935 227.146 221.282 226.679C222.629 226.212 223.871 225.485 224.938 224.538C226.004 223.591 226.873 222.443 227.495 221.16C228.118 219.877 228.482 218.484 228.566 217.061L228.842 212.323C228.913 211.177 228.645 210.035 228.071 209.04V209.028C227.401 207.871 226.359 206.975 225.115 206.486C224.531 206.255 223.915 206.119 223.288 206.084L218.438 205.801L217.261 205.73C216.548 205.687 215.834 205.786 215.159 206.02C214.485 206.254 213.863 206.619 213.329 207.093C212.795 207.567 212.36 208.142 212.049 208.785C211.737 209.428 211.555 210.125 211.514 210.838L211.441 212.084L211.416 212.502L211.348 213.64L211.304 214.411L210.948 220.37C210.898 221.225 211.018 222.082 211.3 222.891C211.581 223.7 212.02 224.446 212.59 225.085C213.159 225.725 213.85 226.246 214.621 226.619C215.392 226.992 216.23 227.209 217.085 227.259Z" fill="#F5B5A9"/>
<path d="M211.3 214.398C211.464 214.393 211.627 214.376 211.788 214.348L224.454 212.314C225.31 212.177 226.108 211.793 226.749 211.209C227.39 210.626 227.846 209.867 228.062 209.028C227.395 207.872 226.356 206.976 225.115 206.486C224.531 206.255 223.915 206.119 223.288 206.084L218.438 205.801L217.261 205.73C216.548 205.687 215.834 205.786 215.159 206.02C214.485 206.254 213.863 206.619 213.329 207.093C212.795 207.567 212.36 208.142 212.049 208.785C211.737 209.428 211.555 210.125 211.514 210.838L211.441 212.084L211.416 212.502L211.348 213.64L211.3 214.398Z" fill="#F5B5A9"/>
<path d="M219.896 217.997C219.481 217.997 219.145 217.661 219.145 217.246C219.145 216.831 219.481 216.495 219.896 216.495C220.31 216.495 220.647 216.831 220.647 217.246C220.647 217.661 220.31 217.997 219.896 217.997Z" fill="#3C1C39"/>
<path d="M214.584 217.997C214.169 217.997 213.833 217.661 213.833 217.246C213.833 216.831 214.169 216.495 214.584 216.495C214.999 216.495 215.335 216.831 215.335 217.246C215.335 217.661 214.999 217.997 214.584 217.997Z" fill="#3C1C39"/>
<path d="M215.145 220.327C215.166 220.62 215.244 220.905 215.376 221.167C215.508 221.428 215.69 221.662 215.912 221.853C215.967 221.899 216.022 221.944 216.09 221.986C216.512 222.286 217.026 222.428 217.542 222.389H217.633C218.191 222.347 218.713 222.097 219.095 221.688C219.478 221.28 219.693 220.743 219.698 220.183C219.698 220.123 219.698 220.06 219.698 220.005C219.689 219.891 219.635 219.785 219.549 219.71C219.506 219.672 219.456 219.644 219.402 219.626C219.349 219.609 219.292 219.602 219.235 219.606L215.558 219.877C215.501 219.879 215.445 219.893 215.394 219.917C215.342 219.941 215.296 219.974 215.258 220.016C215.219 220.058 215.19 220.107 215.17 220.16C215.151 220.214 215.142 220.271 215.145 220.327Z" fill="#962F4A"/>
<path d="M217.553 222.043C217.562 222.158 217.581 222.272 217.612 222.383H217.624C218.182 222.341 218.704 222.091 219.087 221.683C219.469 221.274 219.684 220.737 219.689 220.178C219.42 220.122 219.142 220.13 218.876 220.199C218.611 220.269 218.365 220.4 218.158 220.58C217.951 220.761 217.789 220.987 217.684 221.241C217.579 221.495 217.534 221.769 217.553 222.043Z" fill="#E1617F"/>
<path d="M215.625 219.859C215.675 220.295 216.373 220.594 217.201 220.534C218.028 220.473 218.676 220.073 218.66 219.644L215.625 219.859Z" fill="white"/>
<path d="M230.531 246.484C226.359 246.484 222.977 243.102 222.977 238.93C222.977 234.758 226.359 231.376 230.531 231.376C234.703 231.376 238.085 234.758 238.085 238.93C238.085 243.102 234.703 246.484 230.531 246.484Z" fill="#FFB41F"/>
<path d="M213.247 203.455H226.074C228.536 203.455 230.531 205.45 230.531 207.912C230.531 210.373 228.536 212.369 226.074 212.369H213.247C210.786 212.369 208.79 210.373 208.79 207.912C208.79 205.45 210.786 203.455 213.247 203.455Z" fill="#50274C"/>
<path d="M215.631 201.256H224.924C227.386 201.256 229.381 203.252 229.381 205.713C229.381 208.175 227.386 210.171 224.924 210.171H215.631C213.169 210.171 211.174 208.175 211.174 205.713C211.174 203.252 213.169 201.256 215.631 201.256Z" fill="#50274C"/>
<path d="M208.792 207.91C208.795 209.091 209.266 210.222 210.102 211.057C210.937 211.891 212.07 212.36 213.251 212.36H215.761C214.717 212.37 213.702 212.012 212.895 211.35C212.088 210.688 211.54 209.763 211.346 208.737C211.152 207.711 211.325 206.649 211.835 205.738C212.344 204.827 213.158 204.124 214.134 203.752C214.184 203.646 214.24 203.544 214.301 203.444C214.694 202.774 215.255 202.219 215.929 201.833C216.603 201.448 217.366 201.245 218.142 201.246H215.633C214.796 201.246 213.977 201.481 213.267 201.924C212.558 202.368 211.988 203.002 211.622 203.754C210.786 204.08 210.069 204.652 209.564 205.394C209.059 206.136 208.79 207.013 208.792 207.91Z" fill="#684568"/>
<path d="M229.848 211.235H226.11V215.4C226.11 215.856 226.199 216.307 226.374 216.729C226.548 217.15 226.804 217.532 227.126 217.855C227.449 218.177 227.831 218.433 228.252 218.607C228.673 218.781 229.125 218.871 229.581 218.871H229.848V211.235Z" fill="#50274C"/>
<path d="M227.745 214.144C225.077 214.144 222.915 211.981 222.915 209.313C222.915 206.645 225.077 204.482 227.745 204.482C230.413 204.482 232.576 206.645 232.576 209.313C232.576 211.981 230.413 214.144 227.745 214.144Z" fill="#50274C"/>
<path d="M229.848 212.631C229.445 213.059 228.967 213.411 228.438 213.668V218.681C228.805 218.808 229.19 218.873 229.579 218.873H229.848V213.665C230.832 213.188 231.626 212.392 232.099 211.406C232.573 210.42 232.698 209.303 232.454 208.237C232.21 207.171 231.612 206.219 230.757 205.537C229.902 204.855 228.841 204.483 227.747 204.482C227.509 204.481 227.271 204.499 227.035 204.535C227.91 204.664 228.732 205.029 229.412 205.593C230.093 206.156 230.606 206.896 230.896 207.731C231.185 208.566 231.24 209.464 231.054 210.328C230.869 211.192 230.449 211.988 229.842 212.631H229.848Z" fill="#3F1B3D"/>
<path d="M227.77 220.717C226.246 220.717 225.01 219.481 225.01 217.956C225.01 216.432 226.246 215.196 227.77 215.196C229.295 215.196 230.531 216.432 230.531 217.956C230.531 219.481 229.295 220.717 227.77 220.717Z" fill="#F5B5A9"/>
<path d="M228.603 217.643C228.634 217.876 228.596 218.112 228.493 218.323C228.39 218.534 228.227 218.71 228.025 218.829C227.976 218.855 227.921 218.868 227.866 218.869C227.81 218.869 227.756 218.856 227.706 218.83C227.657 218.805 227.615 218.768 227.583 218.722C227.552 218.676 227.531 218.624 227.525 218.569L227.32 217.031C227.313 216.973 227.32 216.915 227.341 216.86C227.363 216.806 227.397 216.759 227.442 216.722C227.487 216.684 227.54 216.659 227.597 216.648C227.654 216.637 227.713 216.641 227.769 216.659C227.988 216.725 228.183 216.853 228.331 217.028C228.479 217.203 228.574 217.416 228.603 217.643Z" fill="#F5B5A9"/>
<path d="M217.13 206.493H225.983C226.956 206.493 227.745 207.282 227.745 208.255V208.408C227.745 209.382 226.956 210.171 225.983 210.171H217.13C216.156 210.171 215.367 209.382 215.367 208.408V208.255C215.367 207.282 216.156 206.493 217.13 206.493Z" fill="#684568"/>
<path d="M230.524 230.781C230.524 230.781 215.449 231.55 225.693 253.487L222.97 254.932C222.97 254.932 210.707 233.928 226.927 230.781H230.524Z" fill="#604970"/>
<path d="M211.608 262.814L214.822 260.979C216.496 260.022 218.63 260.604 219.586 262.279L219.587 262.28C220.544 263.955 219.962 266.088 218.287 267.045L215.074 268.881C213.399 269.837 211.266 269.255 210.309 267.581L210.308 267.579C209.352 265.904 209.934 263.771 211.608 262.814Z" fill="#F5B5A9"/>
<path d="M214.77 255.971L219.913 256.35C221.435 256.463 222.579 257.788 222.466 259.311L222.466 259.312C222.354 260.835 221.028 261.978 219.506 261.866L214.363 261.486C212.841 261.374 211.697 260.049 211.81 258.526L211.81 258.524C211.922 257.002 213.248 255.859 214.77 255.971Z" fill="#F5B5A9"/>
<path d="M210.554 263.831L213.607 261.459C215.739 259.802 218.81 260.187 220.466 262.319C222.122 264.451 221.737 267.521 219.606 269.178L216.553 271.55C214.421 273.206 211.35 272.821 209.694 270.69C208.038 268.558 208.423 265.487 210.554 263.831Z" fill="#F5B5A9"/>
<path d="M226.294 240.717C225.452 237.61 227.288 234.41 230.395 233.569C233.501 232.727 236.701 234.564 237.543 237.671L240.551 248.778C241.392 251.885 239.556 255.085 236.45 255.927C233.344 256.768 230.143 254.931 229.302 251.824L226.294 240.717Z" fill="#F5B5A9"/>
<path d="M214.742 269.083L217.664 266.812C219.187 265.628 221.381 265.904 222.564 267.427L222.565 267.428C223.749 268.951 223.474 271.145 221.951 272.329L219.029 274.599C217.506 275.783 215.312 275.508 214.128 273.985L214.127 273.983C212.943 272.46 213.219 270.266 214.742 269.083Z" fill="#F5B5A9"/>
<path d="M225.937 241.222C225.087 238.099 226.929 234.879 230.051 234.029C233.173 233.179 236.393 235.021 237.243 238.144L240.757 251.049C241.607 254.172 239.765 257.392 236.643 258.242C233.521 259.092 230.301 257.25 229.45 254.127L225.937 241.222Z" fill="#F5B5A9"/>
<path d="M230.052 234.03C228.5 234.452 227.179 235.474 226.38 236.871C225.581 238.267 225.37 239.924 225.793 241.476L228.137 250.086L239.843 246.899L237.499 238.289C237.077 236.737 236.055 235.416 234.658 234.617C233.261 233.818 231.605 233.607 230.052 234.03Z" fill="#FFD41D"/>
<path d="M213.678 268.131C214.533 269.738 215.957 270.968 217.671 271.579C219.385 272.19 221.266 272.139 222.945 271.435C223.012 271.406 223.078 271.378 223.146 271.346C223.214 271.314 223.254 271.296 223.308 271.269C223.361 271.242 223.465 271.193 223.541 271.152L239.454 262.702C240.296 262.258 241.042 261.653 241.651 260.922C241.71 260.849 241.768 260.778 241.829 260.703C241.943 260.557 242.049 260.408 242.149 260.251C242.199 260.176 242.249 260.098 242.295 260.019C242.389 259.861 242.473 259.701 242.559 259.537C242.723 259.211 242.862 258.873 242.973 258.526C243.032 258.348 243.08 258.17 243.125 257.992C243.169 257.814 243.206 257.636 243.235 257.458C243.251 257.366 243.263 257.28 243.276 257.184C243.297 257.006 243.313 256.828 243.326 256.637C243.394 255.319 243.102 254.006 242.48 252.841C242.409 252.705 242.334 252.577 242.256 252.451C241.287 250.867 239.75 249.713 237.958 249.224C236.167 248.735 234.256 248.949 232.617 249.822L216.704 258.272C214.996 259.179 213.719 260.727 213.151 262.575C212.584 264.424 212.773 266.422 213.678 268.131Z" fill="#F5B5A9"/>
<path d="M215.488 267.638C215.051 266.268 216.21 264.675 218.076 264.079C219.943 263.484 221.81 264.112 222.247 265.482C222.684 266.853 221.525 268.446 219.659 269.041C217.792 269.637 215.925 269.009 215.488 267.638Z" fill="#F8CDC5"/>
</svg>
