<svg width="696" height="615" viewBox="0 0 696 615" fill="none" xmlns="http://www.w3.org/2000/svg">
<path d="M32.4826 452C-46.0174 529 104.983 644.5 695.983 608V-11L20.4826 -2.5C2.64922 82.5 -19.9174 251.3 32.4826 246.5C97.9826 240.5 109.983 387 32.4826 452Z" fill="#FDFDFD"/>
<path d="M359.924 393.563V396.207C359.924 401.999 358.429 407.693 355.585 412.739C352.74 417.784 348.641 422.01 343.685 425.008C342.713 425.598 341.71 426.136 340.681 426.621C340.503 426.707 340.322 426.791 340.142 426.875C338.904 427.437 337.631 427.922 336.332 428.325L335.979 428.432C332.835 429.369 329.572 429.841 326.291 429.834H312.644C310.804 429.835 309.04 430.566 307.739 431.867C306.438 433.169 305.707 434.933 305.707 436.773V462.661H189.708V436.776C189.71 435.38 189.289 434.017 188.503 432.864C187.716 431.711 186.599 430.823 185.299 430.317C185.103 430.24 184.905 430.172 184.702 430.111C184.451 430.039 184.197 429.981 183.94 429.938C183.553 429.87 183.161 429.836 182.769 429.837H159.812C159.449 429.837 159.091 429.837 158.73 429.821C155.971 429.739 153.232 429.329 150.569 428.6C150.282 428.521 149.995 428.44 149.711 428.346C147.929 427.809 146.193 427.13 144.521 426.314C141.934 425.054 139.513 423.479 137.313 421.625C136.546 420.98 135.808 420.302 135.101 419.593C130.83 415.318 127.741 410.011 126.132 404.187C124.524 398.363 124.452 392.222 125.923 386.362C127.395 380.502 130.359 375.124 134.528 370.75C138.697 366.377 143.928 363.159 149.711 361.409C149.995 361.323 150.282 361.241 150.569 361.155C153.581 360.331 156.69 359.915 159.812 359.918H186.749C187.371 359.918 187.992 359.854 188.601 359.727L188.674 359.712C190.379 359.344 191.941 358.492 193.173 357.259C193.421 357.01 193.655 356.746 193.871 356.469V356.456C194.127 356.134 194.359 355.795 194.567 355.44V355.427C195.376 354.048 195.806 352.479 195.814 350.88C195.822 349.28 195.407 347.707 194.612 346.32C193.817 344.932 192.669 343.779 191.285 342.978C189.901 342.176 188.33 341.754 186.731 341.754H141.313C137.116 341.752 133.014 340.506 129.524 338.173C126.035 335.84 123.315 332.525 121.708 328.648C120.102 324.77 119.68 320.503 120.498 316.386C121.315 312.269 123.334 308.486 126.299 305.516L126.462 305.374L126.528 305.311C130.487 301.458 135.794 299.305 141.318 299.308C145.687 299.307 149.899 297.679 153.132 294.742C153.404 294.488 153.665 294.234 153.922 293.98C156.854 290.982 158.614 287.033 158.883 282.849C158.908 282.468 158.921 282.087 158.921 281.696C158.921 275.1 161.541 268.774 166.205 264.109C170.87 259.445 177.196 256.824 183.792 256.824H327.556C332.123 256.824 336.568 258.296 340.232 261.021C343.897 263.746 346.585 267.579 347.899 271.953C348.49 273.935 348.791 275.993 348.793 278.061C348.793 278.798 348.755 279.524 348.684 280.241C348.594 281.118 348.45 281.989 348.252 282.849C347.168 287.526 344.532 291.697 340.774 294.684C337.016 297.67 332.357 299.296 327.556 299.296H310.284C308.774 299.293 307.277 299.57 305.867 300.111C305.353 300.307 304.853 300.538 304.371 300.802C302.418 301.876 300.789 303.455 299.654 305.374C299.502 305.628 299.357 305.9 299.223 306.172C298.38 307.875 297.945 309.75 297.953 311.65V311.724C297.953 312.105 297.976 312.486 298.011 312.852C298.159 314.369 298.59 315.844 299.281 317.203C299.38 317.398 299.484 317.591 299.594 317.779C300.674 319.666 302.234 321.235 304.115 322.326C305.997 323.416 308.133 323.991 310.307 323.992C310.516 323.992 310.719 323.992 310.924 324.005H310.98C313.293 324.097 315.557 324.694 317.615 325.752C320.993 327.491 323.646 330.371 325.1 333.88C325.1 333.908 325.123 333.934 325.133 333.962C325.588 335.074 325.914 336.235 326.104 337.421C326.243 338.274 326.312 339.136 326.312 339.999V350.921C326.311 351.335 326.335 351.748 326.383 352.158C326.624 354.333 327.499 356.388 328.899 358.07C330.299 359.751 332.162 360.984 334.257 361.615L334.325 361.635C336.318 362.231 338.269 362.956 340.167 363.804L340.706 364.058C341.702 364.52 342.707 365.034 343.711 365.602C346.611 367.22 349.263 369.246 351.585 371.62C352.659 372.726 353.644 373.915 354.531 375.176C354.745 375.478 354.95 375.785 355.153 376.098C356.594 378.334 357.717 380.76 358.488 383.306C359.474 386.635 359.958 390.092 359.924 393.563Z" fill="#FFFAF4"/>
<path d="M274.569 371.605H267.219L265.083 347.772C265.069 347.622 265.088 347.472 265.136 347.33C265.184 347.188 265.262 347.057 265.363 346.947C265.465 346.836 265.589 346.748 265.726 346.688C265.864 346.628 266.012 346.598 266.162 346.598H271.344C271.613 346.598 271.872 346.698 272.071 346.88C272.27 347.061 272.394 347.31 272.418 347.579L274.569 371.605Z" fill="#F9E7D9"/>
<path d="M269.774 360.865C271.011 360.865 272.014 359.862 272.014 358.625C272.014 357.388 271.011 356.385 269.774 356.385C268.537 356.385 267.534 357.388 267.534 358.625C267.534 359.862 268.537 360.865 269.774 360.865Z" fill="#EFD6C5"/>
<path d="M259.022 346.598H263.696C264.051 346.598 264.391 346.739 264.642 346.99C264.893 347.241 265.034 347.582 265.034 347.937V371.607H257.683V347.937C257.683 347.582 257.825 347.241 258.076 346.99C258.327 346.739 258.667 346.598 259.022 346.598Z" fill="#F9E7D9"/>
<path d="M261.359 360.865C262.596 360.865 263.599 359.862 263.599 358.625C263.599 357.388 262.596 356.385 261.359 356.385C260.122 356.385 259.119 357.388 259.119 358.625C259.119 359.862 260.122 360.865 261.359 360.865Z" fill="#EFD6C5"/>
<path d="M318.514 370.22V365.638C318.514 364.874 317.894 364.254 317.13 364.254H294.892C294.127 364.254 293.508 364.874 293.508 365.638V370.22C293.508 370.985 294.127 371.605 294.892 371.605H317.13C317.894 371.605 318.514 370.985 318.514 370.22Z" fill="#F9E7D9"/>
<path d="M306.487 370.169C307.724 370.169 308.727 369.166 308.727 367.929C308.727 366.692 307.724 365.689 306.487 365.689C305.25 365.689 304.247 366.692 304.247 367.929C304.247 369.166 305.25 370.169 306.487 370.169Z" fill="#EFD6C5"/>
<path d="M321.656 362.867V358.285C321.656 357.52 321.036 356.9 320.272 356.9H298.034C297.269 356.9 296.65 357.52 296.65 358.285V362.867C296.65 363.631 297.269 364.251 298.034 364.251H320.272C321.036 364.251 321.656 363.631 321.656 362.867Z" fill="#F9E7D9"/>
<path d="M309.629 362.819C310.866 362.819 311.869 361.816 311.869 360.578C311.869 359.341 310.866 358.338 309.629 358.338C308.392 358.338 307.389 359.341 307.389 360.578C307.389 361.816 308.392 362.819 309.629 362.819Z" fill="#EFD6C5"/>
<path d="M288.412 390.065H278.011C277.24 390.065 276.614 390.691 276.614 391.462V398.945C276.614 399.717 277.24 400.342 278.011 400.342H288.412C289.184 400.342 289.809 399.717 289.809 398.945V391.462C289.809 390.691 289.184 390.065 288.412 390.065Z" fill="#F9E7D9"/>
<path d="M283.213 397.871C284.686 397.871 285.88 396.677 285.88 395.204C285.88 393.731 284.686 392.537 283.213 392.537C281.74 392.537 280.546 393.731 280.546 395.204C280.546 396.677 281.74 397.871 283.213 397.871Z" fill="#E8D1C1"/>
<path d="M281.88 395.475C282.03 395.475 282.151 395.354 282.151 395.204C282.151 395.054 282.03 394.932 281.88 394.932C281.729 394.932 281.608 395.054 281.608 395.204C281.608 395.354 281.729 395.475 281.88 395.475Z" fill="#D3AA94"/>
<path d="M284.684 395.475C284.834 395.475 284.955 395.354 284.955 395.204C284.955 395.054 284.834 394.932 284.684 394.932C284.534 394.932 284.412 395.054 284.412 395.204C284.412 395.354 284.534 395.475 284.684 395.475Z" fill="#D3AA94"/>
<path d="M354.513 375.173H253.825V371.617H351.567C352.641 372.723 353.626 373.912 354.513 375.173Z" fill="#F9E7D9"/>
<path d="M302.652 321.338H253.825V317.769H299.571C300.359 319.145 301.405 320.357 302.652 321.338Z" fill="#F9E7D9"/>
<path d="M251.897 292.42C252.409 292.42 252.899 292.623 253.261 292.985C253.622 293.346 253.825 293.837 253.825 294.348V462.661H249.969V294.343C249.969 293.831 250.173 293.341 250.534 292.98C250.896 292.618 251.386 292.415 251.897 292.415V292.42Z" fill="#F9E7D9"/>
<path d="M286.85 272.859H274.077C273.698 272.859 273.391 273.167 273.391 273.545V278.122C273.391 278.501 273.698 278.808 274.077 278.808H286.85C287.229 278.808 287.536 278.501 287.536 278.122V273.545C287.536 273.167 287.229 272.859 286.85 272.859Z" fill="#F2E1D3"/>
<path d="M277.15 281.076H264.376C263.998 281.076 263.691 281.383 263.691 281.762V286.339C263.691 286.718 263.998 287.025 264.376 287.025H277.15C277.529 287.025 277.836 286.718 277.836 286.339V281.762C277.836 281.383 277.529 281.076 277.15 281.076Z" fill="#F9EEE4"/>
<path d="M259.474 281.076H246.701C246.322 281.076 246.015 281.383 246.015 281.762V286.339C246.015 286.718 246.322 287.025 246.701 287.025H259.474C259.853 287.025 260.16 286.718 260.16 286.339V281.762C260.16 281.383 259.853 281.076 259.474 281.076Z" fill="#F9EEE4"/>
<path d="M296.137 281.076H283.363C282.984 281.076 282.677 281.383 282.677 281.762V286.339C282.677 286.718 282.984 287.025 283.363 287.025H296.137C296.515 287.025 296.822 286.718 296.822 286.339V281.762C296.822 281.383 296.515 281.076 296.137 281.076Z" fill="#F9E7D9"/>
<path d="M269.037 289.441H256.264C255.885 289.441 255.578 289.748 255.578 290.126V294.703C255.578 295.082 255.885 295.389 256.264 295.389H269.037C269.416 295.389 269.723 295.082 269.723 294.703V290.126C269.723 289.748 269.416 289.441 269.037 289.441Z" fill="#F9E7D9"/>
<path d="M184.907 387.782H172.134C171.755 387.782 171.448 388.089 171.448 388.468V393.045C171.448 393.423 171.755 393.73 172.134 393.73H184.907C185.286 393.73 185.593 393.423 185.593 393.045V388.468C185.593 388.089 185.286 387.782 184.907 387.782Z" fill="#F2E1D3"/>
<path d="M175.207 395.999H162.433C162.055 395.999 161.748 396.306 161.748 396.684V401.262C161.748 401.64 162.055 401.947 162.433 401.947H175.207C175.586 401.947 175.893 401.64 175.893 401.262V396.684C175.893 396.306 175.586 395.999 175.207 395.999Z" fill="#F9EEE4"/>
<path d="M157.531 395.999H144.758C144.379 395.999 144.072 396.306 144.072 396.684V401.262C144.072 401.64 144.379 401.947 144.758 401.947H157.531C157.91 401.947 158.217 401.64 158.217 401.262V396.684C158.217 396.306 157.91 395.999 157.531 395.999Z" fill="#F9EEE4"/>
<path d="M194.191 395.999H181.417C181.039 395.999 180.732 396.306 180.732 396.684V401.262C180.732 401.64 181.039 401.947 181.417 401.947H194.191C194.57 401.947 194.877 401.64 194.877 401.262V396.684C194.877 396.306 194.57 395.999 194.191 395.999Z" fill="#F9E7D9"/>
<path d="M167.094 404.363H154.321C153.942 404.363 153.635 404.67 153.635 405.049V409.626C153.635 410.005 153.942 410.312 154.321 410.312H167.094C167.473 410.312 167.78 410.005 167.78 409.626V405.049C167.78 404.67 167.473 404.363 167.094 404.363Z" fill="#F9E7D9"/>
<path d="M155.08 308.211H143.541C143.199 308.211 142.921 308.489 142.921 308.831V312.966C142.921 313.308 143.199 313.586 143.541 313.586H155.08C155.422 313.586 155.7 313.308 155.7 312.966V308.831C155.7 308.489 155.422 308.211 155.08 308.211Z" fill="#F2E1D3"/>
<path d="M146.317 315.636H134.778C134.436 315.636 134.158 315.913 134.158 316.255V320.39C134.158 320.733 134.436 321.01 134.778 321.01H146.317C146.659 321.01 146.937 320.733 146.937 320.39V316.255C146.937 315.913 146.659 315.636 146.317 315.636Z" fill="#F9EEE4"/>
<path d="M163.47 315.636H151.931C151.588 315.636 151.311 315.913 151.311 316.255V320.39C151.311 320.733 151.588 321.01 151.931 321.01H163.47C163.812 321.01 164.09 320.733 164.09 320.39V316.255C164.09 315.913 163.812 315.636 163.47 315.636Z" fill="#F9E7D9"/>
<path d="M322.113 399.169H310.574C310.232 399.169 309.954 399.446 309.954 399.788V403.923C309.954 404.266 310.232 404.543 310.574 404.543H322.113C322.455 404.543 322.733 404.266 322.733 403.923V399.788C322.733 399.446 322.455 399.169 322.113 399.169Z" fill="#F2E1D3"/>
<path d="M313.35 406.593H301.811C301.469 406.593 301.191 406.87 301.191 407.213V411.348C301.191 411.69 301.469 411.968 301.811 411.968H313.35C313.692 411.968 313.97 411.69 313.97 411.348V407.213C313.97 406.87 313.692 406.593 313.35 406.593Z" fill="#F9EEE4"/>
<path d="M330.503 406.593H318.964C318.621 406.593 318.344 406.87 318.344 407.213V411.348C318.344 411.69 318.621 411.968 318.964 411.968H330.503C330.845 411.968 331.122 411.69 331.122 411.348V407.213C331.122 406.87 330.845 406.593 330.503 406.593Z" fill="#F9E7D9"/>
<path d="M133.818 467.134H148.159C149.393 467.134 150.394 466.133 150.394 464.899V464.896C150.394 463.662 149.393 462.661 148.159 462.661H133.818C132.583 462.661 131.583 463.662 131.583 464.896V464.899C131.583 466.133 132.583 467.134 133.818 467.134Z" fill="#A66633"/>
<path d="M154.45 467.134H355.705C356.939 467.134 357.94 466.133 357.94 464.899V464.896C357.94 463.662 356.939 462.661 355.705 462.661H154.45C153.216 462.661 152.215 463.662 152.215 464.896V464.899C152.215 466.133 153.216 467.134 154.45 467.134Z" fill="#A66633"/>
<path d="M238.542 329.114L238.544 329.113C242.027 326.162 242.459 320.947 239.508 317.464L223.347 298.388C220.397 294.905 215.181 294.473 211.699 297.424L211.697 297.426C208.214 300.376 207.782 305.592 210.733 309.074L226.893 328.151C229.844 331.633 235.059 332.065 238.542 329.114Z" fill="#DEE4EB"/>
<path d="M274.823 314.12L274.823 314.117C274.624 312.987 273.546 312.233 272.416 312.432L266.03 313.557C264.9 313.756 264.145 314.833 264.344 315.963L264.345 315.966C264.544 317.096 265.621 317.851 266.751 317.651L273.138 316.527C274.268 316.328 275.023 315.25 274.823 314.12Z" fill="#EF927F"/>
<path d="M273.144 316.53L266.764 317.655C266.644 317.677 266.523 317.688 266.401 317.688C266.027 317.688 265.66 317.586 265.339 317.393C265.545 317.418 265.754 317.413 265.959 317.378L272.342 316.253C272.76 316.18 273.146 315.98 273.447 315.682C273.748 315.383 273.951 314.999 274.028 314.581C274.104 314.164 274.051 313.733 273.876 313.347C273.7 312.96 273.41 312.637 273.045 312.42C273.54 312.481 273.997 312.718 274.331 313.087C274.666 313.456 274.857 313.934 274.869 314.432C274.881 314.93 274.713 315.416 274.397 315.802C274.08 316.187 273.636 316.445 273.144 316.53Z" fill="#EF927F"/>
<path d="M234.689 331.439C239.854 331.439 244.041 327.252 244.041 322.087C244.041 316.922 239.854 312.735 234.689 312.735C229.524 312.735 225.337 316.922 225.337 322.087C225.337 327.252 229.524 331.439 234.689 331.439Z" fill="#141414"/>
<path d="M266.317 311.289L266.316 311.286C264.961 307.519 260.808 305.564 257.041 306.92L233.029 315.56C229.262 316.916 227.307 321.068 228.662 324.835L228.663 324.838C230.018 328.605 234.171 330.56 237.938 329.204L261.951 320.564C265.718 319.209 267.673 315.056 266.317 311.289Z" fill="#F0A284"/>
<path d="M263.188 320.424C268.238 319.675 271.839 315.753 271.233 311.665C270.626 307.577 266.041 304.871 260.991 305.62C255.942 306.369 252.34 310.291 252.947 314.379C253.553 318.467 258.139 321.173 263.188 320.424Z" fill="#F0A284"/>
<path d="M266.317 311.289L266.316 311.286C264.961 307.519 260.808 305.564 257.041 306.92L233.029 315.56C229.262 316.916 227.307 321.068 228.662 324.835L228.663 324.838C230.018 328.605 234.171 330.56 237.938 329.204L261.951 320.564C265.718 319.209 267.673 315.056 266.317 311.289Z" fill="#E28F79"/>
<path d="M263.188 320.424C268.238 319.675 271.839 315.753 271.233 311.665C270.626 307.577 266.041 304.871 260.991 305.62C255.942 306.369 252.34 310.291 252.947 314.379C253.553 318.467 258.139 321.173 263.188 320.424Z" fill="#F0A284"/>
<path d="M271.242 311.668C271.133 310.956 270.9 310.268 270.554 309.636C270.109 311.643 268.699 313.446 266.693 314.678C265.437 315.436 264.042 315.933 262.591 316.141C262.203 316.198 261.813 316.235 261.422 316.253L255.309 318.455L237.33 324.907C235.637 325.52 233.775 325.478 232.11 324.791C230.445 324.104 229.097 322.82 228.329 321.191C228.122 322.413 228.236 323.668 228.659 324.833C228.98 325.73 229.474 326.555 230.114 327.26C230.755 327.966 231.528 328.538 232.39 328.944C233.252 329.35 234.185 329.581 235.137 329.626C236.088 329.67 237.039 329.526 237.935 329.202L261.946 320.566C261.967 320.559 261.987 320.55 262.007 320.54C262.402 320.523 262.796 320.485 263.188 320.426C268.235 319.677 271.839 315.752 271.242 311.668Z" fill="#EF927F"/>
<path d="M275.338 309.505L275.337 309.502C275.05 308.391 273.917 307.724 272.806 308.011L266.528 309.633C265.417 309.92 264.749 311.054 265.036 312.165L265.037 312.167C265.324 313.278 266.457 313.946 267.568 313.659L273.846 312.036C274.957 311.749 275.625 310.616 275.338 309.505Z" fill="#F0A284"/>
<path d="M271.823 306.488L271.822 306.486C271.623 305.356 270.546 304.601 269.415 304.8L263.029 305.925C261.899 306.124 261.144 307.202 261.343 308.332L261.344 308.334C261.543 309.464 262.62 310.219 263.75 310.02L270.137 308.895C271.267 308.696 272.022 307.618 271.823 306.488Z" fill="#F0A284"/>
<path d="M263.361 303.708L263.359 303.706C262.646 302.807 261.339 302.656 260.44 303.37L255.361 307.401C254.462 308.115 254.312 309.422 255.025 310.32L255.027 310.322C255.74 311.221 257.047 311.371 257.946 310.658L263.025 306.627C263.924 305.913 264.074 304.606 263.361 303.708Z" fill="#F0A284"/>
<path d="M256.601 315.831C258.969 315.831 260.889 313.912 260.889 311.544C260.889 309.176 258.969 307.256 256.601 307.256C254.233 307.256 252.314 309.176 252.314 311.544C252.314 313.912 254.233 315.831 256.601 315.831Z" fill="#F0A284"/>
<path d="M206.881 264.518H212.469C213.203 264.518 213.907 264.81 214.427 265.329C214.946 265.848 215.238 266.552 215.238 267.287V269.405C215.238 271.327 214.475 273.17 213.117 274.529C211.759 275.889 209.918 276.654 207.996 276.657C207.702 276.657 207.421 276.54 207.213 276.332C207.005 276.125 206.889 275.843 206.889 275.549V264.518H206.881Z" fill="#141414"/>
<path d="M245.845 363.464H198.57C196.85 363.464 195.456 364.858 195.456 366.578C195.456 368.298 196.85 369.692 198.57 369.692H245.845C247.564 369.692 248.959 368.298 248.959 366.578C248.959 364.858 247.564 363.464 245.845 363.464Z" fill="#9A463B"/>
<path d="M217.963 365.115L215.827 371.211L212.065 381.947L193.721 433.987L183.64 462.587H175.842L183.028 433.987L196.104 381.947L198.989 371.211L200.627 365.115H217.963Z" fill="#9A463B"/>
<path d="M245.535 365.115L245.187 371.211L244.575 381.947L240.904 433.987L238.885 462.587H231.087L230.211 433.987L228.613 381.947L228.346 371.211L228.197 365.115H245.535Z" fill="#9A463B"/>
<path d="M213.038 326.695H237.508C237.793 326.695 238.065 326.808 238.266 327.009C238.467 327.21 238.58 327.482 238.58 327.767C238.58 329.838 237.757 331.825 236.292 333.289C234.828 334.754 232.841 335.577 230.77 335.577H205.227V334.505C205.227 332.434 206.05 330.447 207.515 328.982C208.98 327.518 210.966 326.695 213.038 326.695Z" fill="#9A463B"/>
<path d="M224.968 333.695C224.968 331.306 223.032 329.369 220.644 329.369C218.256 329.369 216.32 331.306 216.32 333.695V365.366C216.32 367.755 218.256 369.692 220.644 369.692C223.032 369.692 224.968 367.755 224.968 365.366V333.695Z" fill="#9A463B"/>
<path d="M193.627 305.854H210.028C213.177 305.854 216.198 307.105 218.425 309.332C220.651 311.559 221.903 314.579 221.903 317.729V351.96C221.903 355.109 220.651 358.13 218.425 360.357C216.198 362.584 213.177 363.835 210.028 363.835H181.753V317.729C181.753 314.579 183.004 311.559 185.231 309.332C187.458 307.105 190.478 305.854 193.627 305.854Z" fill="#9A463B"/>
<path d="M183.028 433.987H193.721L183.64 462.587H175.842L183.028 433.987Z" fill="#DB8D5C"/>
<path d="M240.904 433.987L238.885 462.587H231.087L230.211 433.987H240.904Z" fill="#DB8D5C"/>
<path d="M243.913 415.138L244.292 424.45L229.468 425.053L229.089 415.741L243.913 415.138Z" fill="#F0A284"/>
<path d="M243.913 415.138L244.037 418.199L229.213 418.802L229.089 415.741L243.913 415.138Z" fill="#EF927F"/>
<path d="M235.365 426.24L249.82 426.834C249.867 425.88 249.724 424.927 249.401 424.028C249.078 423.13 248.58 422.304 247.936 421.599C247.291 420.894 246.514 420.323 245.648 419.92C244.783 419.517 243.846 419.289 242.892 419.25C241.938 419.211 240.985 419.361 240.089 419.692C239.193 420.022 238.372 420.527 237.672 421.177C236.972 421.827 236.408 422.609 236.012 423.478C235.616 424.347 235.396 425.285 235.365 426.24Z" fill="white"/>
<path d="M251.306 428.577V426.359C251.304 425.897 251.126 425.452 250.809 425.116C250.491 424.78 250.058 424.577 249.596 424.548L230.602 423.413C230.292 423.394 229.982 423.439 229.691 423.545C229.399 423.651 229.132 423.815 228.907 424.028C228.681 424.242 228.502 424.499 228.38 424.784C228.258 425.069 228.195 425.376 228.197 425.686V429.791L251.306 428.577Z" fill="#141414"/>
<path d="M228.194 428.564V430.596C228.194 430.705 228.216 430.812 228.257 430.912C228.299 431.012 228.36 431.103 228.437 431.18C228.514 431.256 228.605 431.317 228.706 431.358C228.806 431.399 228.914 431.42 229.022 431.419L250.269 431.363C250.599 431.362 250.925 431.297 251.23 431.17C251.534 431.043 251.811 430.857 252.043 430.624C252.276 430.39 252.46 430.112 252.585 429.807C252.711 429.502 252.775 429.176 252.774 428.846C252.773 428.516 252.707 428.19 252.58 427.886C252.453 427.582 252.268 427.305 252.034 427.073C251.8 426.841 251.523 426.657 251.218 426.531C250.913 426.406 250.586 426.343 250.257 426.344L244.506 426.359C244.223 426.36 243.943 426.416 243.682 426.525C243.421 426.634 243.184 426.793 242.984 426.994C242.785 427.194 242.627 427.432 242.519 427.694C242.412 427.955 242.356 428.235 242.357 428.518L228.194 428.564Z" fill="#2C2C2C"/>
<path d="M206.702 401.108L210.815 395.195L222.871 403.581L218.758 409.494L206.702 401.108Z" fill="#EF927F"/>
<path d="M210.968 405.892L222.088 415.145C222.711 414.417 223.183 413.572 223.477 412.66C223.771 411.748 223.88 410.787 223.799 409.832C223.718 408.877 223.449 407.947 223.005 407.098C222.562 406.248 221.955 405.495 221.218 404.882C220.482 404.269 219.631 403.808 218.714 403.527C217.798 403.246 216.835 403.149 215.882 403.243C214.928 403.337 214.003 403.62 213.159 404.075C212.315 404.529 211.571 405.147 210.968 405.892Z" fill="#EFDADC"/>
<path d="M222.22 417.434L223.564 415.671C223.844 415.303 223.974 414.843 223.927 414.382C223.88 413.922 223.659 413.498 223.31 413.194L208.91 400.748C208.676 400.544 208.401 400.39 208.104 400.296C207.808 400.202 207.495 400.17 207.185 400.203C206.875 400.235 206.575 400.33 206.304 400.483C206.033 400.636 205.796 400.843 205.608 401.091L203.119 404.358L222.22 417.434Z" fill="#141414"/>
<path d="M203.858 403.382L202.588 405.056C202.527 405.136 202.482 405.227 202.456 405.324C202.431 405.421 202.424 405.523 202.438 405.622C202.451 405.722 202.484 405.818 202.535 405.905C202.586 405.992 202.653 406.068 202.733 406.128L219.68 419.031C219.942 419.231 220.241 419.377 220.56 419.461C220.879 419.545 221.211 419.566 221.538 419.522C221.865 419.477 222.179 419.369 222.464 419.203C222.749 419.037 222.998 418.816 223.198 418.554C223.398 418.292 223.545 417.993 223.629 417.675C223.714 417.356 223.735 417.024 223.692 416.698C223.648 416.371 223.54 416.056 223.375 415.771C223.21 415.486 222.99 415.236 222.728 415.036L218.156 411.546C217.931 411.374 217.675 411.249 217.401 411.177C217.128 411.104 216.843 411.087 216.562 411.125C216.282 411.163 216.012 411.256 215.768 411.398C215.523 411.541 215.31 411.73 215.138 411.955L203.858 403.382Z" fill="#013568"/>
<path d="M255.182 345.186C257.362 346.702 258.851 349.023 259.321 351.637C259.79 354.251 259.202 356.945 257.686 359.125L225.174 405.861L208.733 394.431L241.245 347.695C241.995 346.615 242.951 345.694 244.057 344.983C245.163 344.273 246.399 343.787 247.693 343.554C248.987 343.321 250.315 343.345 251.6 343.625C252.885 343.905 254.102 344.436 255.182 345.186Z" fill="#141414"/>
<path d="M248.994 363.464H222.253C220.435 363.464 218.634 363.106 216.954 362.41C215.274 361.714 213.748 360.694 212.462 359.408C211.176 358.122 210.156 356.595 209.461 354.915C208.765 353.235 208.407 351.434 208.407 349.616V346.24C208.407 345.18 208.828 344.164 209.578 343.414C210.327 342.664 211.343 342.243 212.403 342.242H248.994C251.808 342.243 254.507 343.361 256.497 345.351C258.487 347.341 259.606 350.04 259.606 352.854C259.606 355.668 258.487 358.367 256.497 360.356C254.507 362.346 251.808 363.464 248.994 363.464Z" fill="#141414"/>
<path d="M193.697 349.741L211.703 349.719C215.641 349.715 218.829 346.519 218.824 342.581L218.778 304.717C218.773 300.78 215.577 297.591 211.639 297.596L193.633 297.618C189.696 297.623 186.507 300.819 186.512 304.757L186.558 342.62C186.563 346.558 189.759 349.746 193.697 349.741Z" fill="white"/>
<path d="M207.787 322.102L199.549 322.112C195.066 322.117 190.763 320.341 187.589 317.174C184.414 314.008 182.628 309.71 182.622 305.226L182.62 303.57C182.618 300.83 183.704 298.202 185.638 296.261C187.573 294.321 190.198 293.228 192.938 293.222L214.317 293.196C217.06 293.193 219.691 294.279 221.633 296.216C223.574 298.152 224.667 300.781 224.67 303.524L224.672 305.18C224.676 309.663 222.9 313.964 219.733 317.137C216.567 320.31 212.27 322.096 207.787 322.102Z" fill="white"/>
<path d="M206.627 292.278V293.2L195.38 293.212L195.372 287.566L195.37 282.214L206.614 282.204L206.627 292.278Z" fill="#F0A284"/>
<path d="M186.546 349.616C186.546 353.14 187.891 356.532 190.305 359.1C192.72 361.668 196.022 363.219 199.54 363.436C199.59 363.438 199.64 363.438 199.69 363.436C199.921 363.449 200.155 363.456 200.391 363.456H227.135C229.921 363.46 232.597 362.366 234.582 360.411C236.567 358.456 237.703 355.798 237.742 353.012C237.833 347.086 232.863 342.234 226.934 342.234H186.548L186.546 349.616Z" fill="#2C2C2C"/>
<path d="M217.686 353.664L217.755 354.172L218.534 359.865L222.525 388.94L226.51 417.975L246.429 415.242L244.709 402.704L239.106 361.879L237.602 350.931C237.403 349.465 236.882 348.061 236.076 346.82C235.271 345.579 234.2 344.532 232.941 343.753C232.63 343.559 232.308 343.383 231.976 343.225C230.339 342.444 228.521 342.12 226.714 342.288C224.908 342.456 223.181 343.11 221.716 344.18C220.251 345.25 219.103 346.697 218.393 348.367C217.684 350.037 217.44 351.867 217.686 353.664Z" fill="#2C2C2C"/>
<path d="M206.627 292.278C206.366 292.3 206.104 292.309 205.842 292.303C203.865 292.273 201.916 291.838 200.115 291.023C198.314 290.208 196.699 289.031 195.372 287.566V282.214H206.617L206.627 292.278Z" fill="#EF927F"/>
<path d="M213.353 268.097L213.33 270.322L213.162 280.812C213.124 283.116 212.173 285.31 210.518 286.913C208.863 288.517 206.64 289.397 204.336 289.362C202.438 289.332 200.565 288.929 198.823 288.176C197.081 287.422 195.505 286.333 194.184 284.97C192.863 283.607 191.823 281.998 191.125 280.233C190.426 278.468 190.082 276.583 190.112 274.686L190.213 268.369C190.25 266.284 191.111 264.299 192.608 262.849C194.106 261.399 196.117 260.601 198.202 260.632L206.236 260.761C208.152 260.792 209.977 261.582 211.312 262.957C212.646 264.332 213.38 266.181 213.353 268.097Z" fill="#F0A284"/>
<path d="M213.353 268.097L213.33 270.322C210.8 271.252 208.123 271.715 205.428 271.689C197.808 271.689 191.623 268.29 191.572 264.089C192.303 263.005 193.293 262.122 194.452 261.518C195.611 260.914 196.903 260.61 198.209 260.632L206.243 260.761C208.158 260.794 209.982 261.585 211.314 262.96C212.647 264.335 213.38 266.182 213.353 268.097Z" fill="#EF927F"/>
<path d="M193.754 333.695V365.369C193.754 366.516 193.298 367.616 192.487 368.427C191.676 369.239 190.576 369.694 189.429 369.694C188.281 369.694 187.181 369.239 186.37 368.427C185.559 367.616 185.103 366.516 185.103 365.369V333.695C185.102 333.151 185.205 332.612 185.408 332.108C185.772 331.164 186.455 330.379 187.339 329.888C188.222 329.396 189.25 329.231 190.243 329.42C191.236 329.609 192.132 330.14 192.773 330.921C193.415 331.703 193.762 332.684 193.754 333.695Z" fill="#DB8D5C"/>
<path d="M201.014 365.115L199.408 369.692L198.877 371.211L196.401 378.28L195.116 381.947L176.772 433.987L166.691 462.587H158.893L166.081 433.987L179.157 381.947L180.142 378.28L182.04 371.211L182.449 369.692L183.678 365.115H201.014Z" fill="#DB8D5C"/>
<path d="M228.588 365.115L228.326 369.692L228.24 371.211L227.833 378.28L227.628 381.947L223.955 433.987L221.936 462.587H214.138L213.264 433.987L211.669 381.947L211.575 378.28L211.402 371.211L211.362 369.692L211.25 365.115H228.588Z" fill="#DB8D5C"/>
<path d="M228.329 360.992H182.187C180.154 360.992 178.507 362.64 178.507 364.673V366.011C178.507 368.044 180.154 369.692 182.187 369.692H228.329C230.361 369.692 232.009 368.044 232.009 366.011V364.673C232.009 362.64 230.361 360.992 228.329 360.992Z" fill="#DB8D5C"/>
<path d="M222.555 362.798H187.963C186.629 362.798 185.547 363.88 185.547 365.214V365.468C185.547 366.802 186.629 367.883 187.963 367.883H222.555C223.889 367.883 224.971 366.802 224.971 365.468V365.214C224.971 363.88 223.889 362.798 222.555 362.798Z" fill="#F1A873"/>
<path d="M182.449 369.692H199.408L198.877 371.211L196.401 378.28H180.142L182.449 369.692Z" fill="#CB7748"/>
<path d="M228.326 369.692L228.24 371.211L227.833 378.28H211.575L211.402 371.211L211.362 369.692H228.326Z" fill="#CB7748"/>
<path d="M193.754 333.695V340.99H185.103V333.695C185.102 333.151 185.205 332.612 185.408 332.107H193.452C193.653 332.613 193.755 333.151 193.754 333.695Z" fill="#CB7748"/>
<path d="M176.772 433.987L166.691 462.587H158.893L166.081 433.987H176.772Z" fill="#CB7748"/>
<path d="M223.955 433.987L221.936 462.587H214.138L213.264 433.987H223.955Z" fill="#CB7748"/>
<path d="M181.834 326.695H206.304C206.589 326.695 206.861 326.808 207.062 327.009C207.263 327.21 207.376 327.482 207.376 327.767C207.376 329.838 206.553 331.825 205.089 333.29C203.624 334.754 201.637 335.577 199.566 335.577H174.011V334.505C174.011 333.479 174.213 332.462 174.607 331.513C175 330.565 175.576 329.703 176.303 328.978C177.03 328.252 177.892 327.677 178.841 327.286C179.79 326.894 180.807 326.693 181.834 326.695Z" fill="#DB8D5C"/>
<path d="M207.364 326.695V327.769C207.364 328.795 207.162 329.81 206.769 330.757C206.377 331.704 205.802 332.565 205.077 333.29C204.352 334.015 203.491 334.59 202.544 334.983C201.596 335.375 200.581 335.577 199.556 335.577H187.364C189.435 335.577 191.421 334.755 192.886 333.29C194.35 331.826 195.173 329.84 195.174 327.769V326.695H207.364Z" fill="#E9A06D"/>
<path d="M258.89 372.659H294.925V382.415H258.89V372.659Z" fill="#CB7748"/>
<path d="M304.237 463.022H300.65L297.511 433.987L286.258 329.855L285.618 323.921H293.589L294.044 329.855L302.014 433.987L304.237 463.022Z" fill="#DB8D5C"/>
<path d="M267.854 323.921L267.142 329.855L254.656 433.987L251.173 463.022H247.196L249.662 433.987L258.504 329.855L259.009 323.921H267.854Z" fill="#DB8D5C"/>
<path d="M259.009 323.921H267.854L267.142 329.855H258.504L259.009 323.921Z" fill="#CB7748"/>
<path d="M294.044 329.855H286.258L285.618 323.921H293.589L294.044 329.855Z" fill="#CB7748"/>
<path d="M298.077 320.965H255.542C254.146 320.965 253.015 322.096 253.015 323.492V324.752C253.015 326.147 254.146 327.279 255.542 327.279H298.077C299.473 327.279 300.604 326.147 300.604 324.752V323.492C300.604 322.096 299.473 320.965 298.077 320.965Z" fill="#DB8D5C"/>
<path d="M249.662 433.987H254.656L251.173 463.022H247.196L249.662 433.987Z" fill="#CB7748"/>
<path d="M304.237 463.022H300.65L297.511 433.987H302.014L304.237 463.022Z" fill="#CB7748"/>
<path d="M298.052 416.626C297.711 416.626 297.414 416.237 297.361 415.696L291.615 355.752C291.557 355.158 291.821 354.604 292.202 354.515C292.583 354.427 292.939 354.835 292.995 355.43L298.743 415.374C298.798 415.971 298.537 416.524 298.156 416.613C298.122 416.621 298.087 416.625 298.052 416.626Z" fill="#F1A873"/>
<path d="M254.31 416.626C254.651 416.626 254.948 416.237 255.001 415.696L260.747 355.752C260.805 355.158 260.541 354.604 260.16 354.515C259.779 354.427 259.423 354.835 259.367 355.43L253.619 415.374C253.564 415.971 253.825 416.524 254.206 416.613C254.24 416.621 254.275 416.625 254.31 416.626Z" fill="#F1A873"/>
<path d="M267.026 317.685H268.095C268.364 317.685 268.623 317.792 268.813 317.983C269.004 318.173 269.111 318.432 269.111 318.701V319.296H266.002V318.701C266.002 318.567 266.029 318.435 266.08 318.311C266.132 318.187 266.207 318.075 266.302 317.98C266.397 317.886 266.51 317.811 266.634 317.761C266.759 317.71 266.892 317.684 267.026 317.685Z" fill="#DEE4EB"/>
<path d="M263.912 317.685H264.981C265.25 317.685 265.509 317.792 265.699 317.983C265.89 318.173 265.997 318.432 265.997 318.701V319.296H262.891V318.701C262.891 318.568 262.917 318.435 262.968 318.311C263.02 318.188 263.095 318.076 263.19 317.981C263.285 317.887 263.397 317.812 263.521 317.761C263.645 317.71 263.778 317.685 263.912 317.685Z" fill="#DEE4EB"/>
<path d="M260.8 317.685H261.869C262.139 317.685 262.397 317.792 262.588 317.983C262.778 318.173 262.885 318.432 262.885 318.701V319.296H259.776V318.701C259.776 318.567 259.803 318.435 259.854 318.311C259.906 318.187 259.982 318.075 260.077 317.98C260.172 317.886 260.285 317.811 260.409 317.761C260.533 317.71 260.666 317.684 260.8 317.685Z" fill="#DEE4EB"/>
<path d="M257.686 317.685H258.755C259.025 317.685 259.283 317.792 259.474 317.983C259.664 318.173 259.771 318.432 259.771 318.701V319.296H256.662V318.701C256.662 318.567 256.689 318.435 256.74 318.311C256.792 318.187 256.868 318.075 256.963 317.98C257.058 317.886 257.171 317.811 257.295 317.761C257.419 317.71 257.552 317.684 257.686 317.685Z" fill="#DEE4EB"/>
<path d="M254.572 317.685H255.641C255.911 317.685 256.169 317.792 256.36 317.983C256.55 318.173 256.657 318.432 256.657 318.701V319.296H253.551V318.701C253.551 318.568 253.577 318.435 253.629 318.311C253.68 318.188 253.755 318.076 253.85 317.981C253.945 317.887 254.058 317.812 254.182 317.761C254.305 317.71 254.438 317.685 254.572 317.685Z" fill="#DEE4EB"/>
<path d="M251.46 317.685H252.53C252.799 317.685 253.058 317.792 253.248 317.983C253.439 318.173 253.546 318.432 253.546 318.701V319.296H250.437V318.701C250.437 318.567 250.463 318.435 250.515 318.311C250.566 318.187 250.642 318.075 250.737 317.98C250.832 317.886 250.945 317.811 251.069 317.761C251.193 317.71 251.326 317.684 251.46 317.685Z" fill="#DEE4EB"/>
<path d="M248.346 317.685H249.416C249.685 317.685 249.944 317.792 250.134 317.983C250.325 318.173 250.432 318.432 250.432 318.701V319.296H247.323V318.701C247.323 318.567 247.349 318.435 247.401 318.311C247.452 318.187 247.528 318.075 247.623 317.98C247.718 317.886 247.831 317.811 247.955 317.761C248.079 317.71 248.212 317.684 248.346 317.685Z" fill="#DEE4EB"/>
<path d="M279.119 317.927H239.624C238.785 317.927 238.105 318.606 238.105 319.444C238.105 320.282 238.785 320.962 239.624 320.962H279.119C279.957 320.962 280.637 320.282 280.637 319.444C280.637 318.606 279.957 317.927 279.119 317.927Z" fill="#141414"/>
<path d="M268.92 320.962H304.409C305.133 320.962 305.835 320.721 306.406 320.277C306.977 319.832 307.382 319.21 307.559 318.508L314.475 291.028C314.596 290.549 314.606 290.049 314.504 289.566C314.402 289.082 314.191 288.629 313.887 288.239C313.583 287.85 313.195 287.535 312.751 287.318C312.307 287.102 311.82 286.989 311.326 286.989H280.002C279.279 286.989 278.577 287.231 278.007 287.675C277.437 288.12 277.031 288.742 276.855 289.443L268.92 320.962Z" fill="#2C2C2C"/>
<path d="M314.475 291.028L307.564 318.508C307.388 319.21 306.982 319.833 306.411 320.278C305.841 320.723 305.138 320.964 304.414 320.965H268.923L269.685 317.917H297.724C298.448 317.916 299.151 317.675 299.722 317.23C300.293 316.785 300.699 316.162 300.876 315.46L307.79 287.98C307.873 287.653 307.904 287.316 307.882 286.979H311.326C311.821 286.979 312.309 287.092 312.753 287.309C313.198 287.527 313.587 287.843 313.891 288.233C314.195 288.624 314.405 289.079 314.507 289.563C314.608 290.047 314.597 290.548 314.475 291.028Z" fill="#141414"/>
<path d="M293.919 306.659C294.9 306.659 295.695 305.864 295.695 304.884C295.695 303.903 294.9 303.108 293.919 303.108C292.939 303.108 292.144 303.903 292.144 304.884C292.144 305.864 292.939 306.659 293.919 306.659Z" fill="#DEE4EB"/>
<path d="M296.299 307.543C296.019 307.981 295.644 308.351 295.201 308.625C294.759 308.899 294.261 309.071 293.744 309.127C293.227 309.183 292.703 309.123 292.213 308.95C291.722 308.777 291.276 308.497 290.908 308.129C290.54 307.761 290.259 307.315 290.086 306.825C289.913 306.334 289.852 305.811 289.908 305.294C289.964 304.776 290.135 304.278 290.409 303.836C290.683 303.393 291.053 303.018 291.491 302.737C291.066 303.406 290.882 304.199 290.969 304.987C291.056 305.774 291.408 306.508 291.969 307.068C292.529 307.628 293.263 307.98 294.05 308.066C294.838 308.153 295.631 307.968 296.299 307.543Z" fill="#DEE4EB"/>
<path d="M187.955 264.518H196.312V269.408C196.312 270.36 196.124 271.303 195.76 272.183C195.396 273.063 194.861 273.862 194.188 274.535C193.515 275.209 192.715 275.743 191.835 276.107C190.956 276.472 190.013 276.659 189.06 276.659C188.767 276.659 188.485 276.543 188.277 276.335C188.07 276.127 187.953 275.846 187.953 275.552V264.518H187.955Z" fill="#141414"/>
<path d="M200.998 270.172C208.653 270.172 214.859 266.746 214.859 262.519C214.859 258.292 208.653 254.866 200.998 254.866C193.343 254.866 187.138 258.292 187.138 262.519C187.138 266.746 193.343 270.172 200.998 270.172Z" fill="#141414"/>
<path d="M212.822 262.519C212.822 265.648 208.23 268.183 202.565 268.183C202.09 268.183 201.621 268.166 201.161 268.133C206.157 267.752 210.01 265.384 210.01 262.519C210.01 259.654 206.144 257.287 201.138 256.911C201.598 256.875 202.068 256.857 202.543 256.857C208.217 256.86 212.822 259.4 212.822 262.519Z" fill="#2C2C2C"/>
<path d="M195.372 264.813C199.008 264.813 201.956 263.185 201.956 261.178C201.956 259.171 199.008 257.543 195.372 257.543C191.736 257.543 188.789 259.171 188.789 261.178C188.789 263.185 191.736 264.813 195.372 264.813Z" fill="#2C2C2C"/>
<path d="M190.701 277.937C192.731 277.937 194.377 276.291 194.377 274.262C194.377 272.232 192.731 270.586 190.701 270.586C188.671 270.586 187.026 272.232 187.026 274.262C187.026 276.291 188.671 277.937 190.701 277.937Z" fill="#F0A284"/>
<path d="M202.144 332.433L202.146 332.431C206.194 330.321 207.765 325.33 205.655 321.282L194.099 299.112C191.989 295.064 186.997 293.493 182.949 295.602L182.947 295.604C178.899 297.714 177.328 302.705 179.438 306.753L190.994 328.923C193.104 332.971 198.096 334.542 202.144 332.433Z" fill="#DEE4EB"/>
<path d="M199.614 333.271C197.904 333.536 196.154 333.26 194.61 332.48C193.066 331.7 191.804 330.456 191.003 328.922L179.451 306.756C178.744 305.4 178.426 303.875 178.534 302.349C178.642 300.824 179.171 299.358 180.062 298.115C180.953 296.872 182.171 295.901 183.581 295.31C184.992 294.718 186.538 294.529 188.049 294.764C186.753 294.968 185.523 295.477 184.462 296.249C183.401 297.022 182.54 298.036 181.948 299.208C181.357 300.38 181.053 301.676 181.062 302.988C181.071 304.301 181.392 305.592 181.999 306.756L193.554 328.922C194.152 330.072 195.012 331.065 196.065 331.82C197.118 332.576 198.333 333.073 199.614 333.271Z" fill="white"/>
<path d="M198.374 334.053C203.54 334.053 207.727 329.866 207.727 324.701C207.727 319.536 203.54 315.349 198.374 315.349C193.209 315.349 189.022 319.536 189.022 324.701C189.022 329.866 193.209 334.053 198.374 334.053Z" fill="#141414"/>
<path d="M230.255 319.564L230.254 319.561C229.466 315.636 225.646 313.093 221.72 313.881L196.7 318.903C192.775 319.691 190.231 323.512 191.019 327.437L191.02 327.439C191.808 331.365 195.628 333.908 199.554 333.12L224.574 328.098C228.499 327.31 231.043 323.489 230.255 319.564Z" fill="#F0A284"/>
<path d="M225.822 328.145C230.927 328.145 235.065 324.795 235.065 320.662C235.065 316.53 230.927 313.179 225.822 313.179C220.717 313.179 216.579 316.53 216.579 320.662C216.579 324.795 220.717 328.145 225.822 328.145Z" fill="#F0A284"/>
<path d="M235.062 320.556C234.526 323.858 231.318 326.484 227.254 326.967C226.805 327.02 226.353 327.046 225.9 327.045C225.508 327.047 225.117 327.026 224.727 326.984L224.653 327.002L222.113 327.51L199.639 332.021C197.754 332.399 195.796 332.013 194.196 330.947C192.595 329.882 191.484 328.224 191.105 326.339C191.013 325.88 190.965 325.413 190.963 324.945C190.811 325.975 190.883 327.025 191.173 328.025C191.464 329.025 191.966 329.951 192.645 330.74C193.325 331.529 194.166 332.162 195.112 332.597C196.058 333.032 197.087 333.258 198.128 333.261C198.61 333.261 199.091 333.213 199.563 333.118L224.582 328.097L224.653 328.079C225.044 328.12 225.437 328.14 225.829 328.14C230.935 328.14 235.072 324.79 235.072 320.66C235.065 320.614 235.065 320.591 235.062 320.556Z" fill="#FCB798"/>
<path d="M236.411 323.664L236.411 323.661C236.38 322.514 235.425 321.61 234.277 321.641L227.795 321.816C226.648 321.847 225.743 322.802 225.774 323.949L225.775 323.952C225.806 325.099 226.761 326.004 227.908 325.973L234.39 325.797C235.537 325.766 236.442 324.811 236.411 323.664Z" fill="#F0A284"/>
<path d="M239.894 319.687L239.894 319.684C239.863 318.537 238.908 317.632 237.761 317.663L231.279 317.839C230.132 317.87 229.227 318.825 229.258 319.972L229.258 319.974C229.289 321.122 230.244 322.026 231.391 321.995L237.874 321.82C239.021 321.789 239.925 320.834 239.894 319.687Z" fill="#F0A284"/>
<path d="M236.41 315.623L236.41 315.621C236.379 314.474 235.424 313.569 234.277 313.6L227.795 313.775C226.648 313.806 225.743 314.761 225.774 315.909L225.774 315.911C225.805 317.058 226.76 317.963 227.907 317.932L234.39 317.756C235.537 317.725 236.441 316.77 236.41 315.623Z" fill="#F0A284"/>
<path d="M228.446 311.636L228.444 311.634C227.871 310.64 226.6 310.299 225.606 310.873L219.99 314.115C218.997 314.689 218.656 315.96 219.23 316.954L219.231 316.956C219.805 317.95 221.076 318.29 222.069 317.716L227.685 314.474C228.679 313.9 229.019 312.629 228.446 311.636Z" fill="#F0A284"/>
<path d="M213.692 326.635C214.875 326.397 215.641 325.246 215.403 324.063C215.166 322.88 214.015 322.114 212.832 322.351L201.922 324.541C200.739 324.779 199.973 325.93 200.21 327.113C200.447 328.296 201.599 329.062 202.782 328.825L213.692 326.635Z" fill="#FCB798"/>
<path d="M202.474 275.12C202.948 275.12 203.333 274.736 203.333 274.262C203.333 273.787 202.948 273.403 202.474 273.403C202 273.403 201.616 273.787 201.616 274.262C201.616 274.736 202 275.12 202.474 275.12Z" fill="#361647"/>
<path d="M208.776 275.12C209.25 275.12 209.634 274.736 209.634 274.262C209.634 273.787 209.25 273.403 208.776 273.403C208.302 273.403 207.917 273.787 207.917 274.262C207.917 274.736 208.302 275.12 208.776 275.12Z" fill="#361647"/>
<path d="M191.415 276.164V273.047C191.413 272.97 191.392 272.894 191.356 272.825C191.32 272.757 191.268 272.697 191.206 272.652C191.143 272.606 191.071 272.575 190.994 272.562C190.918 272.549 190.839 272.553 190.765 272.575C190.334 272.713 189.958 272.984 189.692 273.349C189.425 273.714 189.282 274.155 189.282 274.607C189.282 275.059 189.425 275.5 189.692 275.865C189.958 276.23 190.334 276.501 190.765 276.639C190.839 276.661 190.918 276.665 190.995 276.652C191.071 276.638 191.144 276.607 191.207 276.562C191.27 276.516 191.321 276.456 191.357 276.387C191.393 276.318 191.413 276.242 191.415 276.164Z" fill="#EF927F"/>
<path d="M191.252 276.095C192.074 276.095 192.741 275.429 192.741 274.607C192.741 273.785 192.074 273.119 191.252 273.119C190.43 273.119 189.764 273.785 189.764 274.607C189.764 275.429 190.43 276.095 191.252 276.095Z" fill="#FCF4E6"/>
<path d="M191.364 274.787L191.362 274.788C191.103 274.999 191.064 275.38 191.275 275.639L193.019 277.783C193.23 278.042 193.61 278.081 193.869 277.87L193.871 277.868C194.13 277.658 194.169 277.277 193.959 277.018L192.215 274.874C192.004 274.615 191.623 274.576 191.364 274.787Z" fill="#FCF4E6"/>
<path d="M193.228 277.249L192.035 275.783L191.933 275.659C191.825 275.687 191.714 275.7 191.603 275.699H191.481C191.14 275.669 190.823 275.512 190.592 275.259C190.362 275.007 190.234 274.677 190.234 274.335C190.23 274.047 190.319 273.766 190.488 273.533C190.324 273.66 190.192 273.822 190.101 274.009C190.01 274.195 189.964 274.4 189.965 274.607C189.965 274.97 190.109 275.318 190.366 275.575C190.622 275.832 190.971 275.976 191.334 275.976C191.444 275.977 191.554 275.963 191.661 275.935L192.959 277.525C193.005 277.582 193.062 277.63 193.126 277.665C193.19 277.7 193.261 277.722 193.333 277.729C193.406 277.737 193.48 277.73 193.55 277.709C193.62 277.688 193.685 277.653 193.742 277.607C193.81 277.551 193.864 277.48 193.899 277.398C193.787 277.453 193.659 277.467 193.538 277.44C193.416 277.413 193.307 277.345 193.228 277.249Z" fill="white"/>
<path d="M207.562 277.942C207.561 278.231 207.504 278.516 207.393 278.783C207.281 279.049 207.119 279.291 206.914 279.494C206.864 279.544 206.811 279.592 206.756 279.636C206.365 279.966 205.869 280.146 205.357 280.144H205.268C204.803 280.145 204.35 279.996 203.975 279.72C203.721 279.533 203.509 279.294 203.356 279.018C203.202 278.742 203.109 278.437 203.084 278.122C203.084 278.064 203.084 278 203.084 277.939C203.085 277.827 203.13 277.719 203.21 277.64C203.29 277.561 203.398 277.516 203.51 277.515H207.145C207.257 277.517 207.363 277.563 207.441 277.643C207.519 277.723 207.562 277.83 207.562 277.942Z" fill="#962F4A"/>
<path d="M205.314 279.806C205.314 279.92 205.303 280.033 205.281 280.144H205.268C204.715 280.143 204.183 279.932 203.778 279.556C203.373 279.179 203.125 278.664 203.084 278.112C203.242 278.067 203.406 278.044 203.571 278.044C203.802 278.044 204.03 278.09 204.242 278.18C204.454 278.269 204.647 278.399 204.809 278.563C204.971 278.726 205.099 278.921 205.186 279.134C205.272 279.348 205.316 279.576 205.314 279.806Z" fill="#E1617F"/>
<path d="M207.056 277.525C207.038 277.957 206.373 278.287 205.555 278.287C204.737 278.287 204.074 277.939 204.056 277.508L207.056 277.525Z" fill="white"/>
</svg>
